<svg xmlns="http://www.w3.org/2000/svg" width="48" height="48" viewBox="0 0 256 256"><style>.a{stop-color:#e9e9ef}.b{stop-color:#b1b1c5}.c{stop-color:#cecedb}.d{stop-color:#fff}.e{stop-color:#a12830}.f{stop-color:#fff}.g{stop-color:#cf0000}.h{stop-color:#7c0000}.i{stop-color:#b80000}.j{fill:none}</style><path class="j" d="M0 256V0h256v256"/><path d="M248.4 32.5C167.3-10.4 86.2 85.8 5.1 40 2.3 38.4 0 39.2 0 42v172c0 2.8 2.3 6.5 5.1 8.1C87 268.5 169 169.7 250.9 216c2.8 1.6 5.1.8 5.1-2V42c0-2.8-2.3-6.5-5.1-8.1-.8-.5-1.7-1-2.5-1.4z" fill="#4d4d4d"/><path d="M248.4 37.6c0 1.8-14.9-10.2-37.3-11.1-22.5-2.3-52.4 6.5-82.5 15.4S68.3 59.8 45.2 57.5c-23-.9-38.9-13-40.1-12.4V217c1.2-.8 16.9 11.5 39.8 12.4 22.9 2.4 53-6.5 83.1-15.5 30.1-8.9 60.2-17.8 83.1-15.4 22.9.9 38.6 13.2 39.8 12.4V39c-1.3-.8-2.5-1.4-2.5-1.4z" fill="url(#linearGradient5696)"/><path d="M248.4 207c-80.3-42.5-160.5 51.3-240.8 8.9V49c80.3 42.5 160.5-51.3 240.8-8.9V207z" fill="#a12830"/><path d="M7.6 114.5v41.8c80.3 41.4 160.5-50.2 240.8-8.8v-41.7C168.1 64.4 87.9 156 7.6 114.5z" fill="#fff"/><path d="M248.4 207c-80.3-42.5-160.5 51.3-240.8 8.9V49c80.3 42.5 160.5-51.3 240.8-8.9V207z" fill="url(#linearGradient5686)"/><path class="j" d="M0 256V0h256v256"/></svg>