<svg xmlns="http://www.w3.org/2000/svg" width="48" height="48" viewBox="0 0 256 256"><style>.a{stop-color:#e9e9ef}.b{stop-color:#b1b1c5}.c{stop-color:#cecedb}.d{stop-color:#fff}.e{stop-color:#c200be}.f{stop-color:#1000ae}.g{stop-color:#00dab6}.h{stop-color:#cf0000}.i{stop-color:#7c0000}.j{stop-color:#b80000}.k{stop-color:red}.l{stop-color:#fff}.m{stop-color:#0039a6}.n{stop-color:#d52b1e}.o{fill:#fff}.p{fill:#0039a6}</style><path fill="none" d="M0 256V0h256v256"/><path d="M248.4 32.5C167.3-10.4 86.2 85.8 5.1 40 2.3 38.4 0 39.2 0 42v171.9c0 2.8 2.3 6.6 5.1 8.2C87 268.4 169 169.6 250.9 216c2.8 1.6 5.1.8 5.1-2V42.1c0-2.8-2.3-6.6-5.1-8.2-.8-.5-1.7-.9-2.5-1.4z" fill="#4d4d4d"/><path d="M248.4 37.6c0 1.9-14.9-10.2-37.3-11.1-22.4-2.4-52.4 6.5-82.5 15.4S68.3 59.8 45.2 57.5c-23-.9-38.9-13-40.1-12.4V217c1.2-.8 16.9 11.5 39.8 12.4 22.9 2.4 53-6.6 83.1-15.5 30.1-8.9 60.2-17.9 83.1-15.4 22.9.9 38.6 13.2 39.8 12.4V39c-1.3-.7-2.5-1.4-2.5-1.4z" fill="url(#linearGradient3027)"/><path d="M248.4 207c-80.2-42.5-160.5 51.4-240.7 8.9v-88l240.7-5.5V207z" fill="#d52b1e"/><path d="M7.6 107.3c80.3 40.7 160.5-49.2 240.8-8.5V57.9C168.1 17.1 87.9 107.1 7.6 66.4v40.9z" class="o"/><path d="M7.6 90.5c80.3 41.7 160.5-50.4 240.8-8.7V39.9C168.1-1.7 87.9 90.3 7.6 48.7v41.9z" class="o"/><path d="M7.6 123.1v41.7c80.2 41.5 160.5-50.2 240.7-8.7v-41.7c-80.2-41.5-160.4 50.1-240.7 8.7z" class="p"/><path d="M7.6 106.5v43.1c80.2 42.9 160.5-51.9 240.7-9V97.5c-80.2-42.8-160.4 51.9-240.7 9z" class="p"/><path d="M248.4 207c-80.2-42.5-160.5 51.4-240.7 8.9V49.1c80.2 42.4 160.4-51.4 240.7-9v166.8z" fill="url(#linearGradient3019)"/></svg>